<svg width="23" height="23" viewBox="0 0 23 23" fill="none" xmlns="http://www.w3.org/2000/svg">
<g filter="url(#filter0_d)">
<path d="M18.8247 13.9417L15.0971 10.2141C16.1129 8.97176 16.6124 7.38649 16.4921 5.78623C16.3719 4.18596 15.6412 2.69312 14.4512 1.6165C13.2611 0.539881 11.7028 -0.0381557 10.0985 0.00195626C8.49424 0.0420682 6.96676 0.697259 5.83201 1.83201C4.69726 2.96676 4.04207 4.49424 4.00196 6.09852C3.96184 7.7028 4.53988 9.26112 5.6165 10.4512C6.69312 11.6412 8.18596 12.3719 9.78623 12.4921C11.3865 12.6124 12.9718 12.1129 14.2141 11.0971L17.9417 14.8247C18.0595 14.9385 18.2172 15.0014 18.3809 15C18.5447 14.9986 18.7013 14.9329 18.8171 14.8171C18.9329 14.7013 18.9986 14.5447 19 14.3809C19.0014 14.2172 18.9385 14.0595 18.8247 13.9417ZM10.2649 11.2608C9.27676 11.2608 8.31086 10.9677 7.48929 10.4188C6.66772 9.86984 6.02738 9.08958 5.64925 8.1767C5.27112 7.26382 5.17219 6.25932 5.36496 5.29021C5.55772 4.3211 6.03354 3.43091 6.73223 2.73223C7.43091 2.03354 8.3211 1.55772 9.29021 1.36496C10.2593 1.17219 11.2638 1.27112 12.1767 1.64925C13.0896 2.02738 13.8698 2.66772 14.4188 3.48929C14.9677 4.31086 15.2608 5.27676 15.2608 6.26486C15.2593 7.58939 14.7324 8.85926 13.7958 9.79585C12.8593 10.7324 11.5894 11.2593 10.2649 11.2608Z" fill="white"/>
</g>
<defs>
<filter id="filter0_d" x="0" y="0" width="23" height="23" filterUnits="userSpaceOnUse" color-interpolation-filters="sRGB">
<feFlood flood-opacity="0" result="BackgroundImageFix"/>
<feColorMatrix in="SourceAlpha" type="matrix" values="0 0 0 0 0 0 0 0 0 0 0 0 0 0 0 0 0 0 127 0"/>
<feOffset dy="4"/>
<feGaussianBlur stdDeviation="2"/>
<feColorMatrix type="matrix" values="0 0 0 0 0 0 0 0 0 0 0 0 0 0 0 0 0 0 0.25 0"/>
<feBlend mode="normal" in2="BackgroundImageFix" result="effect1_dropShadow"/>
<feBlend mode="normal" in="SourceGraphic" in2="effect1_dropShadow" result="shape"/>
</filter>
</defs>
</svg>
